Coordinates
version=1
nRows=16
nColumns=36
inDegrees=yes

Units are S.I. units (second, meters, Newtons, ...)
If the header above contains a line with 'inDegrees', this indicates whether rotational values are in degrees (yes) or radians (no).

endheader
time	pelvis_tilt	pelvis_list	pelvis_rotation	pelvis_tx	pelvis_ty	pelvis_tz	hip_flexion_r	hip_adduction_r	hip_rotation_r	knee_angle_r	knee_angle_r_beta	ankle_angle_r	subtalar_angle_r	mtp_angle_r	hip_flexion_l	hip_adduction_l	hip_rotation_l	knee_angle_l	knee_angle_l_beta	ankle_angle_l	subtalar_angle_l	mtp_angle_l	lumbar_extension	lumbar_bending	lumbar_rotation	arm_flex_r	arm_add_r	arm_rot_r	elbow_flex_r	pro_sup_r	arm_flex_l	arm_add_l	arm_rot_l	elbow_flex_l	pro_sup_l
      2.26666670	     -5.06673476	     -1.83658129	     14.23659907	      0.02453865	      1.26105379	      0.07420043	      4.90544265	     -2.77653612	     -8.44250826	      0.25387527	      0.00443096	      7.62116574	      0.43745368	     -7.49999987	      4.61048596	      1.32870635	    -11.33924740	      1.16713759	      0.02037039	      4.89983041	      3.26289999	     -7.49999987	     -2.40562728	      1.30497581	     -3.50656631	      5.97782352	     -6.87479386	     19.97144149	     25.17695541	     74.07346843	     -0.77186695	     -8.22284572	     17.87879139	     30.95919761	     62.57635974
      2.28333330	     -5.05474734	     -1.82254567	     14.14115991	      0.02495459	      1.26133264	      0.07426304	      4.90438665	     -2.76440821	     -8.27301828	      0.26150338	      0.00456410	      7.52602810	      0.19427307	     -7.49999987	      4.60577005	      1.32489141	    -11.36852124	      1.21034179	      0.02112445	      4.92041518	      3.23528315	     -7.49999987	     -2.48992719	      1.30765689	     -3.42957849	      6.05546156	     -6.86962586	     19.96761269	     25.28601704	     73.46563875	     -0.63310631	     -8.27318836	     17.84300813	     30.94485575	     62.42188942
      2.30000000	     -5.04783732	     -1.84619480	     14.09742566	      0.02470264	      1.26122138	      0.07410378	      4.90409921	     -2.73010459	     -8.32338960	      0.27088221	      0.00472779	      7.46613123	      0.21430246	     -7.49999987	      4.61160593	      1.29211274	    -11.39198217	      1.23361595	      0.02153066	      4.85404239	      3.09718577	     -7.49999987	     -2.57769263	      1.34161352	     -3.41994972	      6.04552793	     -6.92911102	     20.05371419	     25.45648128	     73.11578160	     -0.62210298	     -8.27289882	     17.93131889	     30.94848354	     62.33623937
      2.31666670	     -5.09814859	     -1.89415252	     14.05883316	      0.02501982	      1.26140097	      0.07418802	      4.95957151	     -2.67213904	     -8.36938862	      0.27642739	      0.00482457	      7.45186296	      0.26404645	     -7.49999987	      4.69729559	      1.22916103	    -11.48767641	      1.31367934	      0.02292803	      4.87786458	      3.20484610	     -7.49999987	     -2.46753748	      1.35135429	     -3.35303540	      6.09595391	     -6.91280128	     20.14141942	     25.29548531	     72.94450654	     -0.57656034	     -8.25397476	     18.05588981	     30.66870970	     62.27310288
      2.33333330	     -5.25836358	     -1.96993138	     14.05015860	      0.02483306	      1.26097981	      0.07404418	      5.14095473	     -2.62693443	     -8.43758846	      0.28269311	      0.00493393	      7.33264031	      0.20206457	     -7.49999987	      4.89369651	      1.19010634	    -11.43079332	      1.33607446	      0.02331890	      4.74295488	      3.00953711	     -7.49999987	     -2.19965420	      1.34087856	     -3.26968904	      5.85635277	     -7.05334077	     20.15327228	     25.82138214	     72.73969962	     -0.84369009	     -8.30898532	     18.07247468	     31.09005135	     62.22177762
      2.35000000	     -4.89459859	     -1.94080887	     14.03143030	      0.02487815	      1.25884578	      0.07429836	      4.72446509	     -2.55797362	     -8.46225214	      0.28530367	      0.00497949	      7.37238006	      0.20580749	     -7.49999987	      4.51749018	      1.11882675	    -11.37251520	      1.40022357	      0.02443851	      4.88239838	      2.88169806	     -7.49999987	     -2.64531869	      1.36452944	     -3.10462370	      6.00047953	     -6.99335490	     20.02611626	     25.60365306	     71.44073694	     -0.62716793	     -8.19641983	     17.87895156	     30.81237031	     61.83100048
      2.36666670	     -5.09176341	     -1.99098941	     13.97666191	      0.02473809	      1.26146102	      0.07398359	      4.93210796	     -2.55864104	     -8.50680043	      0.29508487	      0.00515020	      7.21301926	      0.16051394	     -7.49999987	      4.75498486	      1.10145433	    -11.52940066	      1.44986308	      0.02530488	      4.91031225	      3.06313373	     -7.49999987	     -2.19343447	      1.31841283	     -3.11724561	      6.18333997	     -6.98569897	     20.74445122	     24.91887815	     73.83657185	     -0.51996178	     -8.19185490	     18.59515428	     30.12600692	     62.20990923
      2.38333330	     -4.95274151	     -1.96586867	     13.96362339	      0.02496061	      1.26181162	      0.07398626	      4.75244264	     -2.55909161	     -8.72116878	      0.30029583	      0.00524115	      7.41555951	      0.53402539	     -7.49999987	      4.56519348	      1.09703004	    -11.34790429	      1.40445227	      0.02451232	      4.82140483	      2.76146416	     -7.49999987	     -2.34515273	      1.26744222	     -3.08737113	      6.04130179	     -6.99621415	     20.36342504	     25.40163147	     72.87106062	     -0.69243567	     -8.24753879	     18.27061569	     30.56311312	     61.94110082
      2.40000000	     -4.94517113	     -1.97155018	     13.93523083	      0.02455445	      1.26165591	      0.07401561	      4.70539278	     -2.54792456	     -8.57262754	      0.30505614	      0.00532423	      7.20483641	      0.10113317	     -7.49999987	      4.52433167	      1.08289658	    -11.44949807	      1.36619755	      0.02384465	      4.85642097	      2.90324592	     -7.49999987	     -2.21236614	      1.18997248	     -3.01025754	      6.05835257	     -6.87689515	     20.30305283	     25.01691204	     72.87797210	     -0.57255258	     -8.16263160	     18.11253769	     30.30410538	     61.85699198
      2.41666670	     -5.01497129	     -1.95967425	     13.89038594	      0.02474028	      1.25853304	      0.07411446	      4.75400886	     -2.59559715	     -8.50756778	      0.31455576	      0.00549003	      7.13771506	     -0.11746306	     -7.49999987	      4.58759969	      1.11600142	    -11.42941429	      1.39478703	      0.02434363	      4.90417245	      2.73917762	     -7.49999987	     -2.05891920	      1.12493937	     -2.95160011	      6.01971418	     -6.80969506	     19.38320487	     24.84347336	     77.01937275	     -0.52509034	     -8.21157966	     18.02716568	     30.30928270	     62.46602299
      2.43333330	     -4.96910322	     -1.96153073	     13.88046954	      0.02452451	      1.25881061	      0.07398337	      4.70339283	     -2.59088827	     -8.56303353	      0.32057342	      0.00559506	      7.22221009	     -0.15319870	     -7.49999987	      4.53089210	      1.11045001	    -11.38196267	      1.40904258	      0.02459243	      4.82649628	      2.42459756	     -7.49999987	     -2.09589910	      1.14197764	     -2.91519584	      6.01129507	     -6.82594236	     19.32333942	     24.83835243	     76.92964055	     -0.43009975	     -8.20759024	     17.98924522	     30.34630975	     62.45401501
      2.45000000	     -4.95372048	     -1.93463661	     13.79919048	      0.02498633	      1.26249399	      0.07399891	      4.69779725	     -2.61200120	     -8.45654719	      0.31743105	      0.00554022	      7.02348928	     -0.36219494	     -7.49999987	      4.49580630	      1.11158871	    -11.40425061	      1.42465152	      0.02486486	      4.66145325	      2.29602615	     -7.49999987	     -2.06384816	      1.08970128	     -2.71225387	      5.86120061	     -6.87956982	     19.15659901	     25.16385332	     75.80659104	     -0.41670443	     -8.20339504	     17.79000045	     30.58004307	     62.23445746
      2.46666670	     -4.97971048	     -1.90125389	     13.70261183	      0.02478584	      1.26226656	      0.07410364	      4.72444852	     -2.64170517	     -8.39428677	      0.32269805	      0.00563214	      7.05009314	     -0.26696220	     -7.49999987	      4.48885512	      1.15119843	    -11.44569903	      1.40189127	      0.02446762	      4.47886638	      2.13328971	     -7.49999987	     -1.96166903	      1.04755939	     -2.58355109	      5.80594887	     -6.88791851	     19.14369707	     25.22552059	     75.38581277	     -0.39971784	     -8.19866444	     17.70963393	     30.63521559	     62.15069358
      2.48333330	     -4.92876335	     -1.86777599	     13.76939486	      0.02491455	      1.26242893	      0.07419324	      4.66657019	     -2.65220709	     -8.46978964	      0.31427133	      0.00548507	      7.03691321	     -0.09076884	     -7.49999987	      4.39637285	      1.17772728	    -11.29063163	      1.34627351	      0.02349691	      4.51577867	      2.14596961	     -7.49999987	     -1.96618491	      1.02848563	     -2.59294803	      5.77771078	     -6.85166696	     19.10923787	     25.14613139	     74.58520266	     -0.29783188	     -8.15310993	     17.56333053	     30.56894101	     61.98512843
      2.50000000	     -4.83554761	     -1.82079587	     13.76903383	      0.02459141	      1.25953065	      0.07440210	      4.60830692	     -2.66492878	     -8.36176911	      0.30754378	      0.00536765	      7.11237743	     -0.05828786	     -7.49999987	      4.23961266	      1.22576468	    -11.20877204	      1.20610355	      0.02105048	      4.56438940	      2.09811091	     -7.49999987	     -2.10930521	      0.97243544	     -2.50986747	      5.70106705	     -6.92053711	     19.08261523	     25.46703832	     73.56621138	     -0.26502373	     -8.17016893	     17.39439664	     30.87056087	     61.77597103
      2.51666670	     -4.90058888	     -1.83793241	     13.75703717	      0.02474997	      1.25946307	      0.07451141	      4.67924466	     -2.65739900	     -8.22471165	      0.30826167	      0.00538018	      7.06682958	     -0.24799679	     -7.49999987	      4.28936403	      1.23772854	    -11.29595634	      1.08963501	      0.01901772	      4.65679952	      2.33667045	     -7.49999987	     -1.92452115	      0.96394200	     -2.51363454	      5.80991549	     -6.85320696	     19.21148011	     25.07997255	     73.38146484	     -0.10579685	     -8.11495914	     17.40532944	     30.48837061	     61.72046142
